<svg width="1025" height="267" viewBox="0 0 1025 267" fill="none" xmlns="http://www.w3.org/2000/svg">
<path d="M52.9646 111.369H156.378V133.85H49.0303L52.9646 111.369Z" fill="#FF0808"/>
<path d="M52.9646 200.169H151.882V222.649H49.0303L52.9646 200.169Z" fill="#FF0808"/>
<mask id="path-3-outside-1_2634_3" maskUnits="userSpaceOnUse" x="62.626" y="4" width="961" height="261" fill="black">
<rect fill="white" x="62.626" y="4" width="961" height="261"/>
<path d="M937.796 68.9174C957.116 68.9174 973.044 72.9086 985.579 80.8918C998.19 88.8751 1007.05 100.013 1012.16 114.303C1017.35 128.593 1018.39 145.238 1015.28 164.238C1012.16 183.079 1005.69 199.605 995.877 213.815C986.057 227.945 973.601 238.962 958.514 246.866C943.427 254.771 926.262 258.721 907.023 258.721C887.624 258.721 871.616 254.731 859.001 246.747C846.469 238.763 837.644 227.626 832.536 213.335C828.423 201.83 826.974 188.824 828.19 174.317H887.82C887.433 180.163 887.646 185.505 888.462 190.344C889.738 197.928 892.49 203.875 896.722 208.186C900.951 212.417 906.582 214.531 913.605 214.532C920.791 214.532 927.217 212.378 932.885 208.067C938.635 203.756 943.464 197.727 947.375 189.983C951.286 182.239 954.083 173.258 955.757 163.039C957.434 152.981 957.596 144.159 956.238 136.575C954.961 128.912 952.247 122.964 948.094 118.733C943.945 114.422 938.314 112.266 931.211 112.266C924.025 112.266 917.559 114.462 911.809 118.853C906.062 123.163 901.233 129.191 897.322 136.934C895.065 141.444 893.189 146.414 891.68 151.837H831.976C835.535 137.769 841.151 125.137 848.823 113.942C858.564 99.7326 871.016 88.6759 886.185 80.7725C901.352 72.8691 918.557 68.9174 937.796 68.9174ZM689.644 102.806H690.84C694.035 97.2182 698.264 91.8292 703.534 86.6405C708.883 81.4515 715.31 77.2201 722.814 73.9469C730.317 70.5941 738.901 68.9174 748.562 68.9174C761.336 68.9174 772.711 72.2708 782.69 78.9767C792.67 85.6826 799.935 96.0216 804.485 109.993C809.036 123.963 809.513 141.766 805.923 163.4C802.49 184.236 796.302 201.68 787.36 215.731C778.421 229.781 767.762 240.317 755.387 247.344C743.094 254.37 730.161 257.883 716.589 257.883C707.329 257.883 699.543 256.368 693.236 253.332C687.009 250.3 682.02 246.306 678.269 241.355C674.596 236.406 672.041 231.097 670.603 225.429H668.329L663.54 255.248H605.579L619.017 174.317H677.092C676.845 179.733 677.154 184.675 678.027 189.145C679.545 196.49 682.461 202.2 686.773 206.271C691.161 210.262 696.948 212.258 704.134 212.258C711.319 212.258 717.746 210.262 723.413 206.271C729.081 202.2 733.833 196.49 737.665 189.145C741.496 181.8 744.211 173.179 745.808 163.281C747.405 153.381 747.485 144.798 746.047 137.533C744.691 130.269 741.857 124.64 737.545 120.648C733.234 116.657 727.444 114.661 720.182 114.661C712.996 114.661 706.53 116.617 700.78 120.529C695.112 124.441 690.323 130.03 686.412 137.295C684.118 141.641 682.231 146.49 680.738 151.837H622.746L646.295 10H704.853L689.644 102.806ZM426.372 255.248H370.571L376.199 220.998H374.281C368.613 232.256 360.271 241.198 349.257 247.824C338.24 254.37 325.825 257.644 312.014 257.644C299.479 257.644 288.94 254.768 280.398 249.021C271.857 243.273 265.792 235.249 262.199 224.952C258.686 214.573 258.043 202.439 260.28 188.548L262.665 174.317H321.328L320.873 177.051C319.358 187.03 320.674 194.894 324.827 200.642C329.056 206.39 335.682 209.263 344.703 209.263C350.53 209.263 356.002 207.987 361.109 205.433C366.22 202.798 370.529 199.005 374.042 194.055C377.635 189.026 379.991 182.96 381.111 175.855L398.591 71.3129H457.03L426.372 255.248ZM277.914 58.1392H203.55L170.977 255.248H112.539L145.109 58.1392H70.626L78.7698 10H286.057L277.914 58.1392ZM522.204 255.248H463.647L477.136 174.317H535.595L522.204 255.248ZM325.071 151.837H266.431L279.921 71.3129H338.479L325.071 151.837ZM596.449 68.798C599.163 68.798 601.878 68.9958 604.592 69.3949C607.386 69.7141 610.021 70.1939 612.497 70.8325L603.876 121.848C601.162 120.81 597.606 120.05 593.217 119.571C588.826 119.013 584.835 118.733 581.243 118.733C574.296 118.733 567.83 120.289 561.841 123.402C555.934 126.436 550.903 130.709 546.754 136.217C543.351 140.755 540.927 145.961 539.474 151.837H480.882L494.304 71.3129H551.182L545.554 104.841H547.473C552.822 92.7069 559.806 83.685 568.426 77.7775C577.047 71.7901 586.39 68.798 596.449 68.798Z"/>
</mask>
<path d="M937.796 68.9174C957.116 68.9174 973.044 72.9086 985.579 80.8918C998.19 88.8751 1007.05 100.013 1012.16 114.303C1017.35 128.593 1018.39 145.238 1015.28 164.238C1012.16 183.079 1005.69 199.605 995.877 213.815C986.057 227.945 973.601 238.962 958.514 246.866C943.427 254.771 926.262 258.721 907.023 258.721C887.624 258.721 871.616 254.731 859.001 246.747C846.469 238.763 837.644 227.626 832.536 213.335C828.423 201.83 826.974 188.824 828.19 174.317H887.82C887.433 180.163 887.646 185.505 888.462 190.344C889.738 197.928 892.49 203.875 896.722 208.186C900.951 212.417 906.582 214.531 913.605 214.532C920.791 214.532 927.217 212.378 932.885 208.067C938.635 203.756 943.464 197.727 947.375 189.983C951.286 182.239 954.083 173.258 955.757 163.039C957.434 152.981 957.596 144.159 956.238 136.575C954.961 128.912 952.247 122.964 948.094 118.733C943.945 114.422 938.314 112.266 931.211 112.266C924.025 112.266 917.559 114.462 911.809 118.853C906.062 123.163 901.233 129.191 897.322 136.934C895.065 141.444 893.189 146.414 891.68 151.837H831.976C835.535 137.769 841.151 125.137 848.823 113.942C858.564 99.7326 871.016 88.6759 886.185 80.7725C901.352 72.8691 918.557 68.9174 937.796 68.9174ZM689.644 102.806H690.84C694.035 97.2182 698.264 91.8292 703.534 86.6405C708.883 81.4515 715.31 77.2201 722.814 73.9469C730.317 70.5941 738.901 68.9174 748.562 68.9174C761.336 68.9174 772.711 72.2708 782.69 78.9767C792.67 85.6826 799.935 96.0216 804.485 109.993C809.036 123.963 809.513 141.766 805.923 163.4C802.49 184.236 796.302 201.68 787.36 215.731C778.421 229.781 767.762 240.317 755.387 247.344C743.094 254.37 730.161 257.883 716.589 257.883C707.329 257.883 699.543 256.368 693.236 253.332C687.009 250.3 682.02 246.306 678.269 241.355C674.596 236.406 672.041 231.097 670.603 225.429H668.329L663.54 255.248H605.579L619.017 174.317H677.092C676.845 179.733 677.154 184.675 678.027 189.145C679.545 196.49 682.461 202.2 686.773 206.271C691.161 210.262 696.948 212.258 704.134 212.258C711.319 212.258 717.746 210.262 723.413 206.271C729.081 202.2 733.833 196.49 737.665 189.145C741.496 181.8 744.211 173.179 745.808 163.281C747.405 153.381 747.485 144.798 746.047 137.533C744.691 130.269 741.857 124.64 737.545 120.648C733.234 116.657 727.444 114.661 720.182 114.661C712.996 114.661 706.53 116.617 700.78 120.529C695.112 124.441 690.323 130.03 686.412 137.295C684.118 141.641 682.231 146.49 680.738 151.837H622.746L646.295 10H704.853L689.644 102.806ZM426.372 255.248H370.571L376.199 220.998H374.281C368.613 232.256 360.271 241.198 349.257 247.824C338.24 254.37 325.825 257.644 312.014 257.644C299.479 257.644 288.94 254.768 280.398 249.021C271.857 243.273 265.792 235.249 262.199 224.952C258.686 214.573 258.043 202.439 260.28 188.548L262.665 174.317H321.328L320.873 177.051C319.358 187.03 320.674 194.894 324.827 200.642C329.056 206.39 335.682 209.263 344.703 209.263C350.53 209.263 356.002 207.987 361.109 205.433C366.22 202.798 370.529 199.005 374.042 194.055C377.635 189.026 379.991 182.96 381.111 175.855L398.591 71.3129H457.03L426.372 255.248ZM277.914 58.1392H203.55L170.977 255.248H112.539L145.109 58.1392H70.626L78.7698 10H286.057L277.914 58.1392ZM522.204 255.248H463.647L477.136 174.317H535.595L522.204 255.248ZM325.071 151.837H266.431L279.921 71.3129H338.479L325.071 151.837ZM596.449 68.798C599.163 68.798 601.878 68.9958 604.592 69.3949C607.386 69.7141 610.021 70.1939 612.497 70.8325L603.876 121.848C601.162 120.81 597.606 120.05 593.217 119.571C588.826 119.013 584.835 118.733 581.243 118.733C574.296 118.733 567.83 120.289 561.841 123.402C555.934 126.436 550.903 130.709 546.754 136.217C543.351 140.755 540.927 145.961 539.474 151.837H480.882L494.304 71.3129H551.182L545.554 104.841H547.473C552.822 92.7069 559.806 83.685 568.426 77.7775C577.047 71.7901 586.39 68.798 596.449 68.798Z" fill="black"/>
<path d="M937.796 68.9174C957.116 68.9174 973.044 72.9086 985.579 80.8918C998.19 88.8751 1007.05 100.013 1012.16 114.303C1017.35 128.593 1018.39 145.238 1015.28 164.238C1012.16 183.079 1005.69 199.605 995.877 213.815C986.057 227.945 973.601 238.962 958.514 246.866C943.427 254.771 926.262 258.721 907.023 258.721C887.624 258.721 871.616 254.731 859.001 246.747C846.469 238.763 837.644 227.626 832.536 213.335C828.423 201.83 826.974 188.824 828.19 174.317H887.82C887.433 180.163 887.646 185.505 888.462 190.344C889.738 197.928 892.49 203.875 896.722 208.186C900.951 212.417 906.582 214.531 913.605 214.532C920.791 214.532 927.217 212.378 932.885 208.067C938.635 203.756 943.464 197.727 947.375 189.983C951.286 182.239 954.083 173.258 955.757 163.039C957.434 152.981 957.596 144.159 956.238 136.575C954.961 128.912 952.247 122.964 948.094 118.733C943.945 114.422 938.314 112.266 931.211 112.266C924.025 112.266 917.559 114.462 911.809 118.853C906.062 123.163 901.233 129.191 897.322 136.934C895.065 141.444 893.189 146.414 891.68 151.837H831.976C835.535 137.769 841.151 125.137 848.823 113.942C858.564 99.7326 871.016 88.6759 886.185 80.7725C901.352 72.8691 918.557 68.9174 937.796 68.9174ZM689.644 102.806H690.84C694.035 97.2182 698.264 91.8292 703.534 86.6405C708.883 81.4515 715.31 77.2201 722.814 73.9469C730.317 70.5941 738.901 68.9174 748.562 68.9174C761.336 68.9174 772.711 72.2708 782.69 78.9767C792.67 85.6826 799.935 96.0216 804.485 109.993C809.036 123.963 809.513 141.766 805.923 163.4C802.49 184.236 796.302 201.68 787.36 215.731C778.421 229.781 767.762 240.317 755.387 247.344C743.094 254.37 730.161 257.883 716.589 257.883C707.329 257.883 699.543 256.368 693.236 253.332C687.009 250.3 682.02 246.306 678.269 241.355C674.596 236.406 672.041 231.097 670.603 225.429H668.329L663.54 255.248H605.579L619.017 174.317H677.092C676.845 179.733 677.154 184.675 678.027 189.145C679.545 196.49 682.461 202.2 686.773 206.271C691.161 210.262 696.948 212.258 704.134 212.258C711.319 212.258 717.746 210.262 723.413 206.271C729.081 202.2 733.833 196.49 737.665 189.145C741.496 181.8 744.211 173.179 745.808 163.281C747.405 153.381 747.485 144.798 746.047 137.533C744.691 130.269 741.857 124.64 737.545 120.648C733.234 116.657 727.444 114.661 720.182 114.661C712.996 114.661 706.53 116.617 700.78 120.529C695.112 124.441 690.323 130.03 686.412 137.295C684.118 141.641 682.231 146.49 680.738 151.837H622.746L646.295 10H704.853L689.644 102.806ZM426.372 255.248H370.571L376.199 220.998H374.281C368.613 232.256 360.271 241.198 349.257 247.824C338.24 254.37 325.825 257.644 312.014 257.644C299.479 257.644 288.94 254.768 280.398 249.021C271.857 243.273 265.792 235.249 262.199 224.952C258.686 214.573 258.043 202.439 260.28 188.548L262.665 174.317H321.328L320.873 177.051C319.358 187.03 320.674 194.894 324.827 200.642C329.056 206.39 335.682 209.263 344.703 209.263C350.53 209.263 356.002 207.987 361.109 205.433C366.22 202.798 370.529 199.005 374.042 194.055C377.635 189.026 379.991 182.96 381.111 175.855L398.591 71.3129H457.03L426.372 255.248ZM277.914 58.1392H203.55L170.977 255.248H112.539L145.109 58.1392H70.626L78.7698 10H286.057L277.914 58.1392ZM522.204 255.248H463.647L477.136 174.317H535.595L522.204 255.248ZM325.071 151.837H266.431L279.921 71.3129H338.479L325.071 151.837ZM596.449 68.798C599.163 68.798 601.878 68.9958 604.592 69.3949C607.386 69.7141 610.021 70.1939 612.497 70.8325L603.876 121.848C601.162 120.81 597.606 120.05 593.217 119.571C588.826 119.013 584.835 118.733 581.243 118.733C574.296 118.733 567.83 120.289 561.841 123.402C555.934 126.436 550.903 130.709 546.754 136.217C543.351 140.755 540.927 145.961 539.474 151.837H480.882L494.304 71.3129H551.182L545.554 104.841H547.473C552.822 92.7069 559.806 83.685 568.426 77.7775C577.047 71.7901 586.39 68.798 596.449 68.798Z" stroke="white" stroke-width="12" mask="url(#path-3-outside-1_2634_3)"/>
<path d="M11.9341 151.835H266.533L262.599 174.316H8L11.9341 151.835Z" fill="#FF0808"/>
</svg>
